<svg width="24" height="24" viewBox="0 0 24 24" fill="none" xmlns="http://www.w3.org/2000/svg">
<rect opacity="0.01" width="24" height="24" fill="#fff"/>
<path opacity="0.8" d="M11.3268 4.85112L11.9795 5.42072L12.6363 4.85584C14.7874 3.00587 17.9238 3.12468 19.908 5.19916C21.9004 7.28223 22.028 10.5993 20.2783 12.8387L12.6984 20.2409C12.3105 20.6197 11.6913 20.6204 11.3026 20.2424L3.7109 12.86C1.97472 10.5983 2.10707 7.28004 4.09739 5.19916C6.08439 3.12175 9.21735 3.01036 11.3268 4.85112Z" stroke="white" stroke-width="2"/>
<mask id="mask0" mask-type="alpha" maskUnits="userSpaceOnUse" x="1" y="2" width="22" height="20">
<path d="M11.3268 4.85112L11.9795 5.42072L12.6363 4.85584C14.7874 3.00587 17.9238 3.12468 19.908 5.19916C21.9004 7.28223 22.028 10.5993 20.2783 12.8387L12.6984 20.2409C12.3105 20.6197 11.6913 20.6204 11.3026 20.2424L3.7109 12.86C1.97472 10.5983 2.10707 7.28004 4.09739 5.19916C6.08439 3.12175 9.21735 3.01036 11.3268 4.85112Z" fill="white" stroke="white" stroke-width="2"/>
</mask>
<g mask="url(#mask0)">
</g>
</svg>
