<svg width="24" height="24" viewBox="0 0 24 24" fill="none" xmlns="http://www.w3.org/2000/svg">
<rect opacity="0.01" width="24" height="24" fill="#D8D8D8"/>
<path fill-rule="evenodd" clip-rule="evenodd" d="M19.307 11.1566C19.9787 11.0643 20.6967 11.0132 21.4819 11.0132C21.711 11.0132 21.8964 11.1986 21.8964 11.4277C21.8964 14.3333 21.0317 16.6103 19.2531 18.3889C17.5457 20.0959 15.0878 20.9614 11.9482 20.9614C8.8086 20.9614 6.3507 20.0959 4.6433 18.3889C2.86464 16.6103 2 14.3333 2 11.4277C2 11.1986 2.1854 11.0132 2.41452 11.0132C3.19961 11.0132 3.91759 11.0643 4.58933 11.1566C4.77411 9.76952 5.23355 8.39869 5.98716 7.07698C6.08513 6.90533 6.29237 6.82602 6.47859 6.88955C7.6051 7.26494 8.63882 7.79367 9.56975 8.44804C10.1478 7.61585 10.8458 6.83243 11.6826 6.13501C11.8365 6.00708 12.0599 6.00708 12.2137 6.13501C13.0505 6.83239 13.7485 7.61585 14.3266 8.44804C15.2575 7.79375 16.2913 7.26494 17.4177 6.88955C17.6023 6.82559 17.8112 6.90494 17.9092 7.07698C18.6627 8.39841 19.1222 9.76944 19.307 11.1566ZM18.4925 11.2972C18.3385 10.11 17.9651 8.93274 17.3554 7.78944C16.4191 8.13172 15.5568 8.58984 14.7749 9.14344C15.3481 10.124 15.7435 11.1643 15.9394 12.2333C16.6929 11.8047 17.5381 11.4977 18.4925 11.2972ZM6.54096 7.78944C7.47725 8.13176 8.33956 8.58988 9.12142 9.1434C8.54835 10.124 8.15295 11.1643 7.95702 12.2333C7.20341 11.8047 6.35835 11.4975 5.40383 11.2971C5.55776 10.1102 5.9312 8.9329 6.54096 7.78944ZM2.83549 11.8471C2.91076 14.3499 3.67744 16.2504 5.22943 17.8028C6.54045 19.1135 8.37003 19.8701 10.6697 20.0718C8.94484 18.5443 7.93639 16.526 7.81526 14.2625C7.79501 13.8837 7.80111 13.5053 7.83073 13.1288C6.53742 12.3094 4.93782 11.8944 2.83549 11.8471ZM11.9482 20.0437C9.93881 18.6144 8.76815 16.5556 8.64263 14.2179C8.50339 11.5993 9.70402 8.98641 11.9482 7.00007C14.1924 8.98641 15.393 11.5993 15.2537 14.2179C15.1282 16.5556 13.9576 18.6144 11.9482 20.0437ZM13.2267 20.0718C15.5263 19.8701 17.3559 19.1135 18.6669 17.8028C20.2189 16.2504 20.9856 14.3499 21.0609 11.8471C18.9585 11.8944 17.359 12.3094 16.0656 13.1287C16.0952 13.5053 16.1014 13.8837 16.0811 14.2624C15.96 16.526 14.9515 18.5442 13.2267 20.0718Z" fill="white"/>
</svg>
