<svg width="24" height="24" viewBox="0 0 24 24" fill="none" xmlns="http://www.w3.org/2000/svg">
<rect opacity="0.01" width="24" height="24" fill="#D8D8D8"/>
<path d="M8.75592 15.0207C8.26418 13.6611 8.06165 12.4751 8.20628 11.5205L11.2725 14.5868C11.4461 14.7604 11.6775 14.7603 11.8511 14.5868C12.0246 14.4133 12.0246 14.1818 11.8511 14.0083L8.49555 10.6528C8.64018 10.3924 8.75587 10.161 8.95837 9.95849C9.85512 9.06174 11.3015 9.11961 12.3429 9.29316C12.5743 9.351 12.7768 9.20637 12.8346 8.97496C12.8925 8.74354 12.7478 8.54104 12.5164 8.48319C10.694 8.165 9.27657 8.48319 8.37985 9.37991C7.16491 10.5949 7.02028 12.7066 8.00381 15.31C8.58235 16.872 8.72698 18.2316 8.4377 19.273L5.19789 16.0332C5.02433 15.8596 4.79291 15.8596 4.61937 16.0332C4.4458 16.2067 4.44583 16.4381 4.61937 16.6117L8.0617 20.054C8.00385 20.1697 7.88816 20.2854 7.80138 20.3722L7.51211 20.6615C7.33855 20.835 7.33857 21.0665 7.51211 21.24C7.68566 21.4135 7.9171 21.4135 8.09064 21.24L8.3799 20.9507C9.5948 19.7358 9.73943 17.6242 8.75592 15.0207Z" fill="white"/>
<path d="M7.04947 14.7601C7.10731 14.5287 6.96268 14.3262 6.73127 14.2683C4.90884 13.9502 3.49142 14.2683 2.59469 15.1651L2.30543 15.4543C2.13187 15.6279 2.13189 15.8593 2.30543 16.0329C2.479 16.2064 2.71041 16.2064 2.88396 16.0329L3.17322 15.7436C4.06996 14.8468 5.51632 14.9047 6.5577 15.0783C6.78912 15.1362 6.99162 14.9915 7.04947 14.7601Z" fill="white"/>
<path d="M14.5416 9.23495C13.9631 7.67288 13.8185 6.31333 14.1077 5.27195L17.3476 8.51178C17.5211 8.68534 17.7526 8.68532 17.9261 8.51178C18.0996 8.33823 18.0996 8.10679 17.9261 7.93325L14.4838 4.49092C14.5416 4.3752 14.6573 4.25948 14.7441 4.17272L15.0334 3.88341C15.2069 3.70987 15.207 3.47845 15.0334 3.30489C14.8598 3.13132 14.6284 3.13134 14.4549 3.30489L14.1656 3.59415C12.9507 4.80909 12.806 6.92079 13.7896 9.52419C14.2813 10.8838 14.4838 12.0698 14.3392 13.0244L11.2729 9.95808C11.0994 9.78452 10.8679 9.78454 10.6944 9.95808C10.5208 10.1317 10.5209 10.3631 10.6944 10.5366L14.0499 13.8922C13.9053 14.1525 13.7896 14.3839 13.5871 14.5864C12.6904 15.4832 11.2151 15.4542 10.1448 15.2517C9.91337 15.1939 9.71087 15.3385 9.65302 15.5699C9.62409 15.7146 9.68193 15.8303 9.76872 15.9171C9.82656 15.9749 9.91337 16.0038 10.0001 16.0328C11.7936 16.3799 13.24 16.0906 14.1656 15.165C15.3805 13.9501 15.5252 11.8384 14.5416 9.23495Z" fill="white"/>
<path d="M20.2411 8.51259C20.0675 8.33902 19.8361 8.33905 19.6626 8.51259L19.3733 8.80185C18.4766 9.6986 17.0013 9.66966 15.931 9.46716C15.6996 9.40931 15.4971 9.55394 15.4392 9.78536C15.4103 9.92999 15.4681 10.0457 15.5549 10.1325C15.6128 10.1903 15.6996 10.2193 15.7863 10.2482C17.5798 10.5953 19.0262 10.3061 19.9518 9.3804L20.2411 9.09111C20.4147 8.9176 20.4147 8.68616 20.2411 8.51259Z" fill="white"/>
</svg>
