<svg width="24" height="24" viewBox="0 0 24 24" fill="none" xmlns="http://www.w3.org/2000/svg">
<rect opacity="0.01" width="24" height="24" fill="#D8D8D8"/>
<path fill-rule="evenodd" clip-rule="evenodd" d="M12.8029 20.9997C13.728 21.016 14.4805 20.277 14.4805 19.3526L14.4797 11.9176L19.8892 6.62424C19.9688 6.54631 20.0088 6.43635 19.9984 6.32431C19.9879 6.21227 19.9281 6.10985 19.8352 6.04497C17.8388 4.65139 15.1465 4.85659 13.4335 6.53281C13.1111 6.84825 12.8362 7.20404 12.6138 7.58916C12.7272 5.86879 13.8744 4.37372 15.5442 3.84975C15.7062 3.79891 15.8119 3.64501 15.8019 3.47458C15.792 3.30414 15.6688 3.1597 15.5016 3.12225C15.0698 3.02581 14.6266 2.98609 14.1843 3.00429C12.8382 3.05962 11.6033 3.63608 10.7073 4.62741C9.81134 5.61877 9.36141 6.9063 9.44048 8.25288C9.48356 8.98678 9.68586 9.70198 10.0299 10.3495L4.66852 14.2916C4.31059 14.5548 4.0791 14.9434 4.01666 15.3858C3.95426 15.8281 4.06837 16.2713 4.33807 16.6337C4.4968 16.8471 4.69826 17.0174 4.92768 17.1358C5.08797 17.2184 5.26194 17.2757 5.44443 17.3046C5.88821 17.3748 6.32972 17.2685 6.68766 17.0053L11.1244 13.7429L11.1249 19.2939C11.125 19.7417 11.2995 20.1658 11.6165 20.488C11.7468 20.6205 11.8948 20.7293 12.0551 20.8119C12.2845 20.9303 12.5391 20.9952 12.8029 20.9997ZM12.7841 9.26616C12.948 8.43514 13.3575 7.67115 13.9659 7.07585C15.3128 5.7579 17.3713 5.5088 19.0158 6.41473L14.3404 10.9898C14.1705 10.4174 13.7752 9.90975 13.2024 9.61432C13.1673 9.59618 13.1318 9.57912 13.0962 9.56302C13.0873 9.55897 13.0783 9.55523 13.0692 9.5515L13.0692 9.55149L13.053 9.54472L13.0398 9.53906C13.0229 9.53177 13.0059 9.52449 12.9888 9.51779C12.9762 9.51288 12.9636 9.50834 12.9509 9.5038L12.9355 9.49826L12.9226 9.49354C12.9084 9.48834 12.8942 9.48313 12.8799 9.47833C12.8648 9.47329 12.8496 9.46868 12.8344 9.46408L12.8343 9.46408L12.8343 9.46407L12.8343 9.46406L12.8343 9.46405L12.8233 9.46072L12.8118 9.45722L12.8117 9.4572L12.8117 9.45719C12.7976 9.45288 12.7835 9.44857 12.7694 9.44465L12.7627 9.44263L12.7539 9.44006L12.7582 9.41287C12.7646 9.37314 12.7714 9.33353 12.7789 9.29406L12.7799 9.28914L12.7811 9.28216L12.7841 9.26616ZM10.1933 8.22189C10.2288 8.82744 10.3914 9.41795 10.6679 9.95534C11.0295 9.61254 11.4982 9.40578 11.9998 9.36851C12.0077 9.31326 12.0167 9.25829 12.0264 9.20351L12.0287 9.18943C11.9365 8.85039 11.8795 8.50231 11.859 8.15341C11.7549 6.3804 12.5902 4.7363 13.9855 3.77412C12.9353 3.876 11.9788 4.35474 11.2709 5.13801C10.5087 5.98121 10.126 7.07644 10.1933 8.22189ZM10.6524 13.1463L6.23386 16.3954C5.93438 16.6156 5.54091 16.6237 5.23185 16.4484L4.77805 15.8385C4.69986 15.4934 4.82281 15.1218 5.12232 14.9015L9.9973 11.317C9.93673 11.9022 10.1136 12.4938 10.4824 12.956C10.5085 12.9887 10.5353 13.0205 10.5631 13.0516C10.5937 13.0858 10.6225 13.1165 10.6524 13.1463ZM11.6451 12.933L11.6464 12.9334C12.2454 13.1932 12.9263 13.0252 13.3312 12.5567L13.3344 12.5528C13.3481 12.5369 13.3614 12.5207 13.3744 12.5042L13.3822 12.4938C13.3936 12.479 13.4048 12.4641 13.4156 12.4488L13.4232 12.4376L13.4282 12.4302L13.4331 12.423C13.4404 12.4123 13.4477 12.4015 13.4547 12.3905C13.4574 12.3864 13.46 12.3821 13.4625 12.3779C13.4647 12.3742 13.4669 12.3705 13.4691 12.3668L13.4732 12.36L13.4784 12.3514C13.4829 12.3442 13.4873 12.3369 13.4916 12.3294C13.5034 12.3084 13.515 12.287 13.5259 12.2653C13.5368 12.2437 13.547 12.222 13.5566 12.2002C13.5589 12.1951 13.561 12.19 13.5631 12.1849L13.5662 12.1772L13.5664 12.1769L13.5664 12.1767C13.5724 12.1627 13.5783 12.1486 13.5838 12.1343C13.5864 12.1277 13.5888 12.121 13.5912 12.1143L13.5944 12.1051L13.5956 12.1018C13.5997 12.0906 13.6037 12.0793 13.6075 12.068C13.6112 12.0568 13.6145 12.0456 13.6179 12.0343C13.6212 12.0234 13.6245 12.0124 13.6276 12.0015C13.6311 11.9887 13.6343 11.976 13.6375 11.9631C13.6398 11.9538 13.6421 11.9444 13.6443 11.9349C13.6475 11.9207 13.6505 11.9063 13.6532 11.892L13.6577 11.8681C13.6605 11.8525 13.663 11.8368 13.6652 11.8211L13.668 11.8006C13.6701 11.7842 13.672 11.7677 13.6735 11.7511C13.6772 11.7126 13.6796 11.674 13.6802 11.6355L13.6802 11.6299C13.6804 11.6089 13.6801 11.5879 13.6794 11.567L13.6792 11.5585C13.6783 11.5368 13.6771 11.515 13.6753 11.4934L13.6751 11.4908C13.6731 11.4677 13.6706 11.4445 13.6676 11.4215L13.667 11.4176C13.6644 11.3983 13.6613 11.379 13.6579 11.3598L13.6533 11.3351C13.651 11.3236 13.6487 11.3121 13.6462 11.3006C13.6437 11.2894 13.6413 11.2783 13.6386 11.2672L13.6339 11.2489C13.5443 10.8998 13.329 10.5868 13.0257 10.3786L13.0092 10.3673C12.9996 10.3609 12.9898 10.3547 12.98 10.3485C12.9693 10.3417 12.9584 10.335 12.9474 10.3284L12.9405 10.3243L12.925 10.3152C12.9056 10.3041 12.886 10.2932 12.866 10.2829C12.8437 10.2713 12.8211 10.2604 12.7985 10.2501L12.7903 10.2466L12.7837 10.2438C12.7657 10.2359 12.7477 10.228 12.7295 10.2209L12.7251 10.2192L12.7156 10.2157C12.697 10.2085 12.6784 10.2015 12.6597 10.1952L12.6474 10.1913C12.6281 10.1849 12.6087 10.1787 12.5893 10.1732L12.5776 10.1701C12.558 10.1647 12.5383 10.1595 12.5185 10.1549L12.5062 10.1523C12.4866 10.148 12.467 10.1438 12.4474 10.1403L12.4407 10.1392L12.4394 10.139L12.4392 10.139L12.4339 10.1381L12.424 10.1366C12.3903 10.131 12.3566 10.1267 12.3229 10.1236L12.3164 10.1229C12.2811 10.1198 12.2458 10.1179 12.2106 10.1174L12.2068 10.1174C11.6993 10.111 11.2136 10.3715 10.9491 10.8088C10.9385 10.8264 10.929 10.8425 10.9204 10.8578L10.9203 10.8579C10.9113 10.8743 10.9022 10.8908 10.8937 10.9077C10.8827 10.9294 10.8724 10.9514 10.8626 10.9735C10.8591 10.9815 10.8558 10.9895 10.8526 10.9976L10.8489 11.0065L10.8444 11.0176C10.8413 11.0249 10.8383 11.0322 10.8354 11.0396C10.8297 11.0544 10.8246 11.0693 10.8194 11.0842L10.8193 11.0846C10.8183 11.0874 10.8173 11.0902 10.8163 11.093C10.8148 11.0973 10.8132 11.1015 10.8118 11.1059C10.8059 11.1238 10.8006 11.1417 10.7955 11.1597L10.7918 11.1722C10.7862 11.1926 10.7811 11.213 10.7764 11.2335L10.7752 11.2385C10.6388 11.8453 10.9048 12.5018 11.4644 12.8397L11.4655 12.8404C11.4942 12.8578 11.5234 12.8746 11.5536 12.8902C11.5838 12.9057 11.6144 12.9198 11.6451 12.933ZM13.7264 19.3394C13.7263 19.7141 13.5016 20.0332 13.1799 20.172L12.4258 20.1594C12.3242 20.1123 12.2307 20.0468 12.1497 19.9645C11.9753 19.7871 11.8792 19.5537 11.8792 19.3072L11.8786 13.7788C11.92 13.7857 11.9614 13.7913 12.0029 13.7959C12.048 13.8008 12.0892 13.8041 12.1303 13.8062C12.7169 13.8364 13.2937 13.6336 13.7257 13.24L13.7264 19.3394Z" fill="white"/>
</svg>
