<svg width="24" height="24" viewBox="0 0 24 24" fill="none" xmlns="http://www.w3.org/2000/svg">
<rect opacity="0.01" width="24" height="24" fill="#D8D8D8"/>
<path fill-rule="evenodd" clip-rule="evenodd" d="M8.08696 5H15.913C18.7179 5 21 7.30211 21 10.1316V18.8158C21 19.4687 20.4733 20 19.8261 20H4.17391C3.5267 20 3 19.4687 3 18.8158V10.1316C3 7.30211 5.28209 5 8.08696 5ZM12.3713 9.73684C12.173 7.52711 10.3283 5.78947 8.08696 5.78947C5.84557 5.78947 4.00096 7.52711 3.80257 9.73684H12.3713ZM3.78261 18.8158V10.5263H12.3913V19.2105H10.8261V12.5C10.8261 12.2821 10.6508 12.1053 10.4348 12.1053H5.73913C5.52313 12.1053 5.34783 12.2821 5.34783 12.5V19.2105H4.17391C3.9583 19.2105 3.78261 19.0333 3.78261 18.8158ZM18.6522 19.2105H19.8261C20.0421 19.2105 20.2174 19.0333 20.2174 18.8158V10.5263H18.6522V14.8684C18.6522 15.0863 18.4773 15.2632 18.2609 15.2632C18.0445 15.2632 17.8696 15.0863 17.8696 14.8684V10.5263H13.1739V19.2105H17.8696V17.2368C17.8696 17.0189 18.0445 16.8421 18.2609 16.8421C18.4773 16.8421 18.6522 17.0189 18.6522 17.2368V19.2105ZM10.0435 12.8947V19.2105H6.13043V12.8947H10.0435ZM15.913 5.78947C18.1544 5.78947 19.999 7.52711 20.1974 9.73684H13.154C13.0276 8.07303 12.1131 6.63224 10.7854 5.78947H15.913Z" fill="white"/>
</svg>
