<svg width="24" height="24" viewBox="0 0 24 24" fill="none" xmlns="http://www.w3.org/2000/svg">
<rect opacity="0.01" width="24" height="24" fill="#D8D8D8"/>
<path fill-rule="evenodd" clip-rule="evenodd" d="M18.5995 10.7514H12.3693V8.85418H13.4299C15.7673 8.85418 17.669 7.01091 17.669 4.74519V3.35856C17.669 3.16052 17.5034 3 17.2991 3H15.8686C14.1475 3 12.6628 3.99939 11.9994 5.43091C11.336 3.99939 9.85128 3 8.13019 3H6.69969C6.49538 3 6.32977 3.16052 6.32977 3.35856V4.74516C6.32977 7.01087 8.23142 8.85415 10.5689 8.85415H11.6295V10.7514H5.39921C5.1949 10.7514 5.0293 10.9119 5.0293 11.1099V13.5401C5.0293 13.7381 5.1949 13.8986 5.39921 13.8986H6.48403L7.33088 19.5316C7.45674 20.3687 8.26457 20.9999 9.20997 20.9999H14.7888C15.7342 20.9999 16.542 20.3687 16.6679 19.5316L17.5148 13.8986H18.5996C18.8039 13.8986 18.9695 13.7381 18.9695 13.5401V11.1099C18.9695 10.9119 18.8038 10.7514 18.5995 10.7514ZM12.3693 7.10899C12.3693 5.23871 13.939 3.71715 15.8685 3.71715H16.9291V4.74519C16.9291 6.61547 15.3594 8.13703 13.4299 8.13703H12.8924L14.8783 6.21209C15.0228 6.07206 15.0228 5.84502 14.8783 5.70496C14.7339 5.56496 14.4996 5.56496 14.3551 5.70496L12.3693 7.62994V7.10899ZM11.1063 8.13707L8.10864 5.23144C7.96418 5.09137 7.96418 4.86434 8.10864 4.72427C8.25314 4.58425 8.48737 4.58425 8.63183 4.72427L11.6295 7.6299V7.10896C11.6295 5.23868 10.0597 3.71712 8.13019 3.71712H7.0696V4.74519C7.0696 6.6155 8.63934 8.13707 10.5688 8.13707H11.1063ZM15.9358 19.4282C15.8625 19.9155 15.3694 20.2829 14.7888 20.2829H9.20997C8.62933 20.2829 8.13625 19.9155 8.06298 19.4282L7.23165 13.8987H16.7671L15.9358 19.4282ZM5.76912 13.1816H18.2297V11.4685H5.76912V13.1816Z" fill="white"/>
</svg>
