<svg width="24" height="24" viewBox="0 0 24 24" fill="none" xmlns="http://www.w3.org/2000/svg">
<rect opacity="0.01" width="24" height="24" fill="#D8D8D8"/>
<path fill-rule="evenodd" clip-rule="evenodd" d="M11.714 20.1434C7.93305 20.1434 4.85686 17.0672 4.85686 13.2863C4.85686 9.50531 7.93305 6.42912 11.714 6.42912C15.495 6.42912 18.5712 9.50531 18.5712 13.2863C18.5712 17.0672 15.495 20.1434 11.714 20.1434ZM11.714 20.8577C7.5392 20.8577 4.14258 17.4611 4.14258 13.2863C4.14258 9.11147 7.5392 5.71484 11.714 5.71484C15.8888 5.71484 19.2854 9.11147 19.2854 13.2863C19.2854 17.4611 15.8888 20.8577 11.714 20.8577Z" fill="white"/>
<path fill-rule="evenodd" clip-rule="evenodd" d="M9.99916 11.1431C9.99916 11.8521 9.42244 12.4289 8.71345 12.4289C8.0045 12.4289 7.42773 11.8521 7.42773 11.1431C7.42773 10.4341 8.0045 9.85742 8.71345 9.85742C9.42244 9.85742 9.99916 10.4341 9.99916 11.1431ZM9.14203 11.1431C9.14203 10.9066 8.9495 10.7146 8.71345 10.7146C8.4774 10.7146 8.2849 10.9066 8.2849 11.1431C8.2849 11.3796 8.4774 11.5717 8.71345 11.5717C8.9495 11.5717 9.14203 11.3796 9.14203 11.1431Z" fill="white"/>
<path fill-rule="evenodd" clip-rule="evenodd" d="M15.9992 11.1431C15.9992 11.8521 15.4224 12.4289 14.7134 12.4289C14.0045 12.4289 13.4277 11.8521 13.4277 11.1431C13.4277 10.4341 14.0045 9.85742 14.7134 9.85742C15.4224 9.85742 15.9992 10.4341 15.9992 11.1431ZM15.142 11.1431C15.142 10.9066 14.9495 10.7146 14.7134 10.7146C14.4774 10.7146 14.2849 10.9066 14.2849 11.1431C14.2849 11.3796 14.4774 11.5717 14.7134 11.5717C14.9495 11.5717 15.142 11.3796 15.142 11.1431Z" fill="white"/>
<path d="M16.0125 14.4672C15.9798 14.594 15.1763 17.5722 11.7133 17.5722C8.25048 17.5722 7.44691 14.594 7.41424 14.4672C7.35566 14.2387 7.12548 14.1001 6.89441 14.1575C6.66507 14.2152 6.52614 14.4471 6.58307 14.676C6.59307 14.7137 7.56993 18.4294 11.7133 18.4294C15.8568 18.4294 16.8336 14.7137 16.8437 14.676C16.9006 14.4471 16.7616 14.2152 16.5323 14.1575C16.3004 14.1001 16.0702 14.2387 16.0125 14.4672Z" fill="white"/>
</svg>
