<svg width="24" height="24" viewBox="0 0 24 24" fill="none" xmlns="http://www.w3.org/2000/svg">
<rect opacity="0.01" width="24" height="24" fill="#D8D8D8"/>
<path fill-rule="evenodd" clip-rule="evenodd" d="M20.9898 14.8893C20.956 14.7515 20.8425 14.6474 20.7023 14.6259L18.6847 14.3139C17.8475 14.1844 17.0116 14.1935 16.193 14.3392C16.3934 14.1495 16.5856 13.9512 16.7686 13.7443C17.5436 12.8682 18.1436 11.8651 18.5522 10.7634L19.3833 8.52132C19.4339 8.38524 19.3954 8.23208 19.2866 8.13592C19.1778 8.03972 19.0212 8.02021 18.892 8.08706L16.7689 9.18605C15.75 9.71319 14.8473 10.4108 14.0841 11.2588C14.2103 10.6547 14.2745 10.0387 14.2745 9.41653C14.2745 8.09971 13.9784 6.77398 13.4183 5.58224L12.3158 3.23714C12.2579 3.11385 12.1339 3.03516 11.9977 3.03516C11.8615 3.03516 11.7375 3.11385 11.6796 3.23714L10.5771 5.58224C10.5246 5.69398 10.4738 5.80818 10.426 5.92181C10.3508 6.10083 10.4347 6.30696 10.6137 6.38224C10.7926 6.45748 10.9987 6.37343 11.074 6.19442C11.1182 6.0897 11.1651 5.9843 11.2134 5.88138L11.9977 4.21315L12.7818 5.88138C13.2984 6.97994 13.5714 8.2025 13.5714 9.41653C13.5714 10.3943 13.4008 11.3556 13.0646 12.2739L12.7007 13.2675C12.4086 13.837 12.1735 14.4367 12 15.0568C11.8235 14.4256 11.5827 13.8153 11.2833 13.2365L10.9308 12.2739C10.5945 11.3557 10.4241 10.3943 10.4241 9.41653C10.4241 9.13335 10.4387 8.84687 10.4677 8.56521C10.4877 8.37189 10.3472 8.19936 10.154 8.17939C9.96096 8.15945 9.78828 8.30007 9.76835 8.4931C9.73682 8.79857 9.721 9.10929 9.721 9.41653C9.721 10.0364 9.78455 10.65 9.90992 11.252C9.14789 10.4071 8.24747 9.71182 7.2313 9.18591L5.1079 8.08706C4.97883 8.02006 4.82212 8.03958 4.71341 8.13592C4.60457 8.23194 4.56617 8.38524 4.61668 8.52132L5.44789 10.7632C5.85643 11.8651 6.45663 12.8682 7.23158 13.7443C7.41443 13.9511 7.6068 14.1494 7.80702 14.3392C6.98846 14.1935 6.15253 14.1844 5.31527 14.3139L3.29793 14.6259C3.15759 14.6474 3.04406 14.7515 3.01021 14.8893C2.97622 15.0272 3.02877 15.172 3.14301 15.2563L4.78619 16.4676C5.60147 17.0685 6.50644 17.4941 7.47594 17.7324C7.79779 17.8114 8.12432 17.8678 8.45371 17.9033C8.22736 18.1554 8.02897 18.4359 7.8608 18.7437L7.24423 19.8737C7.17931 19.9927 7.18864 20.1383 7.2679 20.2481C7.33465 20.3406 7.44127 20.3937 7.55273 20.3937C7.57379 20.3937 7.59496 20.3917 7.61603 20.3879L8.88233 20.1562C9.53347 20.037 10.1265 19.7866 10.6446 19.4119C11.032 19.1318 11.3687 18.7856 11.6461 18.3863V20.6363C11.6461 20.8306 11.8035 20.9878 11.9977 20.9878C12.192 20.9878 12.3493 20.8306 12.3493 20.6363V18.3796C12.6275 18.7817 12.9661 19.1303 13.3555 19.4119C13.8737 19.7866 14.4666 20.037 15.1179 20.1562L16.384 20.3879C16.4051 20.3917 16.4263 20.3937 16.4473 20.3937C16.5588 20.3937 16.6653 20.3406 16.7322 20.2481C16.8116 20.1381 16.8208 19.9927 16.756 19.8737L16.1393 18.7437C15.9711 18.4359 15.7728 18.1552 15.5465 17.9033C15.8757 17.8678 16.2024 17.8114 16.5241 17.7322C17.4936 17.4941 18.3986 17.0685 19.214 16.4676L20.8572 15.2563C20.9714 15.172 21.0237 15.0272 20.9898 14.8893ZM12.5577 15.7224C12.7162 15.0041 12.9638 14.3105 13.2907 13.6587C13.3105 13.6323 13.3267 13.6025 13.3387 13.5699L13.3459 13.5507C13.6753 12.9158 14.0809 12.3221 14.5547 11.7864C15.272 10.9755 16.1256 10.3106 17.092 9.81034L18.4081 9.12923L17.8929 10.5188C17.5145 11.539 16.959 12.4675 16.2418 13.2785C15.5993 14.005 14.8362 14.6201 13.9905 15.0986C13.9241 15.134 13.858 15.17 13.7925 15.2072C13.4033 15.4147 12.9979 15.5936 12.5794 15.7415L12.5512 15.7515L12.5577 15.7224ZM5.59182 9.12923L6.10713 10.5188C6.48551 11.539 7.04101 12.4675 7.75816 13.2786C8.40059 14.005 9.16371 14.6201 10.0094 15.0986C10.076 15.134 10.1422 15.1702 10.2078 15.2073C10.5968 15.4147 11.0022 15.5937 11.4205 15.7416L11.4487 15.7515L11.4422 15.7224C11.1194 14.2596 10.4289 12.8985 9.4454 11.7864C8.72808 10.9755 7.87444 10.3106 6.90807 9.81048L5.59182 9.12923ZM5.20339 15.9017L4.2402 15.1916L5.4227 15.0088C6.3314 14.8683 7.23803 14.9067 8.11717 15.1227C8.66464 15.2572 9.19358 15.4615 9.69335 15.7274C9.74837 15.7585 9.80382 15.7887 9.85969 15.8185C10.3925 16.1213 10.8896 16.4958 11.3364 16.9352C10.1203 17.3049 8.84394 17.3444 7.64382 17.0494C6.76471 16.8333 5.94351 16.4472 5.20339 15.9017ZM8.75563 19.4646C9.30313 19.3644 9.79984 19.1549 10.2326 18.8421C10.6469 18.5424 10.9932 18.1503 11.2553 17.6886C10.6556 17.8467 10.0443 17.9327 9.43522 17.946C9.04595 18.2483 8.72424 18.6295 8.47795 19.0806L8.21443 19.5637L8.75563 19.4646ZM15.2443 19.4646C14.6969 19.3644 14.2001 19.1549 13.7675 18.8421C13.353 18.5424 13.0068 18.1503 12.7447 17.6886C13.3445 17.8469 13.9556 17.9327 14.565 17.946C14.954 18.2483 15.2758 18.6295 15.522 19.0806L15.7856 19.5637L15.2443 19.4646ZM16.3561 17.0494C17.2354 16.8333 18.0564 16.4472 18.7967 15.9017L19.7597 15.1916L18.5774 15.0088C17.6685 14.8683 16.762 14.9066 15.8828 15.1226C15.3351 15.2572 14.8059 15.4615 14.3062 15.7279C14.2511 15.7587 14.196 15.7887 14.1405 15.8184C13.6076 16.1213 13.1103 16.4958 12.6637 16.9352C13.8797 17.3048 15.156 17.3442 16.3561 17.0494Z" fill="white"/>
<path d="M9.72549 9.41653C9.72549 8.09971 10.0216 6.77398 10.5817 5.58224L11.6842 3.23714C11.7421 3.11385 11.8661 3.03516 12.0023 3.03516C12.1386 3.03516 12.2625 3.11385 12.3205 3.23714L13.4229 5.58224C13.4754 5.69398 13.5262 5.80818 13.574 5.92181C13.6492 6.10083 13.5653 6.30696 13.3863 6.38224C13.2074 6.45748 13.0013 6.37343 12.926 6.19442C12.8818 6.0897 12.8349 5.9843 12.7866 5.88138L12.0023 4.21315L11.2182 5.88138C10.7016 6.97994 10.4286 8.2025 10.4286 9.41653C10.4286 10.3943 9.72549 10.0387 9.72549 9.41653Z" fill="white"/>
</svg>
