<svg width="24" height="24" viewBox="0 0 24 24" fill="none" xmlns="http://www.w3.org/2000/svg">
<rect opacity="0.01" width="24" height="24" fill="#D8D8D8"/>
<path fill-rule="evenodd" clip-rule="evenodd" d="M4.0134 12.5767C4.02213 12.4395 4.08739 12.312 4.19373 12.2244C4.30002 12.1368 4.43802 12.0968 4.57482 12.114C4.58453 12.1152 4.59423 12.1165 4.60393 12.1179C4.61205 12.119 4.62016 12.1201 4.62828 12.1211C4.55558 10.4516 5.1186 8.97631 5.1457 8.90652C5.2305 8.68801 5.45666 8.55792 5.68913 8.59401C5.70069 8.59581 5.73456 8.60125 5.78682 8.61091C6.23685 6.79374 7.54185 5.28782 7.60232 5.21879C7.73588 5.06639 7.94871 5.00964 8.14084 5.07505C8.1702 5.08505 8.41776 5.17074 8.78299 5.33506C9.71643 4.0187 11.1712 3.11484 11.2373 3.07423C11.3983 2.97526 11.6016 2.97526 11.7626 3.07423C11.8286 3.11487 13.2836 4.01883 14.2171 5.33536C14.5828 5.17078 14.8307 5.08498 14.8601 5.07495C15.0522 5.00948 15.2651 5.06625 15.3986 5.21869C15.4591 5.28772 16.764 6.79361 17.2141 8.61071C17.2658 8.60118 17.2993 8.59581 17.3108 8.59401C17.5431 8.55795 17.7694 8.68801 17.8542 8.90652C17.8813 8.97635 18.4443 10.4516 18.3716 12.1212C18.3797 12.1201 18.3878 12.119 18.396 12.1179C18.4057 12.1166 18.4154 12.1152 18.4251 12.114C18.562 12.0969 18.6999 12.1368 18.8063 12.2244C18.9126 12.312 18.9779 12.4395 18.9866 12.5767C19.2426 16.6074 15.7999 20 11.5 20C7.19522 20 3.7577 16.6025 4.0134 12.5767ZM11.5003 4.09772C11.9128 4.38639 12.7253 5.00811 13.3162 5.79463C12.7735 6.10574 12.1703 6.51982 11.6512 7.0411C11.5531 7.01013 11.4477 7.01003 11.3496 7.04084C10.8303 6.51952 10.227 6.10544 9.68417 5.79433C10.2741 5.01021 11.0878 4.38702 11.5003 4.09772ZM10.5292 7.63464C9.70967 6.85899 8.66069 6.36054 8.1401 6.14329C7.77434 6.62324 7.04473 7.68588 6.75667 8.85482C7.31426 9.02794 8.01884 9.30267 8.69432 9.72338C9.23615 8.82222 9.98653 8.09324 10.5292 7.63464ZM5.94829 9.66644C6.7872 9.87243 8.68119 10.4802 9.55414 11.9068C9.18491 12.2739 8.82082 12.7045 8.53839 13.1826C7.60758 12.7874 6.63657 12.487 5.64056 12.2878C5.55459 11.2329 5.79012 10.2095 5.94829 9.66644ZM10.6377 15.4734C9.93243 16.0004 8.79759 16.9889 8.2776 18.2116C6.37671 17.2039 5.07561 15.3342 5.00331 13.1831C7.028 13.5207 8.95438 14.3042 10.6377 15.4734ZM16.2446 8.85442C15.9564 7.68232 15.2277 6.62248 14.8618 6.14339C14.3408 6.3615 13.2896 6.86174 12.4715 7.63521C13.0141 8.09384 13.7641 8.82258 14.3057 9.72335C14.9816 9.30233 15.6868 9.02751 16.2446 8.85442ZM17.3594 12.2878C16.3634 12.4871 15.3924 12.7875 14.4616 13.1826C14.1792 12.7045 13.8151 12.2739 13.4458 11.9068C14.3189 10.4801 16.2131 9.87233 17.0517 9.66644C17.2099 10.2097 17.4454 11.233 17.3594 12.2878ZM14.7224 18.2116C16.6233 17.2039 17.9243 15.3342 17.9967 13.1831C15.9719 13.5207 14.0456 14.3042 12.3623 15.4734C13.0676 16.0005 14.2024 16.989 14.7224 18.2116ZM9.50191 10.321C10.0883 9.30137 11.0339 8.49417 11.5004 8.13378C11.9668 8.49327 12.9105 9.29802 13.4981 10.321C13.1983 10.5857 12.9222 10.8886 12.6897 11.2347C12.188 10.8338 11.7934 10.5964 11.7563 10.5743C11.5984 10.4804 11.4015 10.4804 11.2437 10.5743C11.2065 10.5964 10.812 10.8338 10.3103 11.2348C10.0778 10.8886 9.80173 10.5857 9.50191 10.321ZM13.5506 13.6061C12.9649 12.6642 11.9679 11.9155 11.5 11.5964C11.0323 11.9153 10.0351 12.6641 9.44931 13.6061C10.1638 13.9681 10.85 14.3879 11.5 14.8629C12.15 14.3879 12.8362 13.9681 13.5506 13.6061ZM11.5 19.0039C10.6878 19.0039 9.91003 18.8652 9.19261 18.6124C9.6786 17.444 10.9492 16.4656 11.5 16.0826C12.0509 16.4658 13.3214 17.4441 13.8073 18.6124C13.09 18.8652 12.3122 19.0039 11.5 19.0039Z" fill="white"/>
</svg>
