<svg width="27" height="25" viewBox="0 0 27 25" fill="none" xmlns="http://www.w3.org/2000/svg">
<path d="M5.83888 25C5.55307 25 5.26924 24.9108 5.02702 24.7357C4.57581 24.4087 4.36503 23.8466 4.48783 23.3042L6.1661 15.9115L0.474489 10.9201C0.0561172 10.5548 -0.103708 9.97643 0.0680593 9.4472C0.239827 8.91896 0.707161 8.54497 1.26048 8.49382L8.79117 7.81014L11.7685 0.842515C11.9881 0.330597 12.488 0 13.0436 0C13.5991 0 14.099 0.330597 14.3186 0.841321L17.2959 7.81014L24.8254 8.49382C25.3799 8.54378 25.8473 8.91896 26.0191 9.4472C26.1908 9.97544 26.032 10.5548 25.6136 10.9201L19.922 15.9105L21.6003 23.303C21.7233 23.8466 21.5123 24.4087 21.0613 24.7347C20.6113 25.0607 20.0112 25.0858 19.5373 24.801L13.0436 20.9204L6.54984 24.8032C6.3303 24.9335 6.08569 25 5.83888 25ZM13.0436 19.2487C13.2904 19.2487 13.5348 19.315 13.7545 19.4453L19.883 23.1108L18.2991 16.1332C18.186 15.6366 18.3546 15.1181 18.7383 14.7821L24.1125 10.069L17.0024 9.42332C16.4904 9.37654 16.0502 9.0547 15.8501 8.58299L13.0436 2.00767L10.2336 8.58398C10.0357 9.05251 9.59547 9.37435 9.08475 9.42113L1.97362 10.0668L7.34757 14.7799C7.7325 15.1169 7.90089 15.6344 7.78684 16.1322L6.20411 23.1096L12.3326 19.4453C12.5521 19.315 12.7968 19.2487 13.0436 19.2487ZM8.73365 7.94488C8.73365 7.94488 8.73365 7.94608 8.73245 7.94707L8.73365 7.94488ZM17.3513 7.9417L17.3525 7.94389C17.3525 7.94269 17.3525 7.94269 17.3513 7.9417Z" fill="white"/>
</svg>
