<svg width="27" height="25" viewBox="0 0 27 25" fill="none" xmlns="http://www.w3.org/2000/svg">
<path d="M26.0195 9.44608C25.8477 8.91784 25.3792 8.54385 24.8271 8.49389L17.2963 7.8102L14.3201 0.842323C14.1004 0.330401 13.6004 0 13.0439 0C12.4874 0 11.9872 0.330401 11.7689 0.842323L8.79266 7.8102L1.26071 8.49389C0.708586 8.54484 0.241049 8.91883 0.0682854 9.44608C-0.103483 9.97432 0.0551489 10.5537 0.472728 10.9199L6.16538 15.9116L4.4869 23.3042C4.36409 23.8478 4.57507 24.4099 5.02609 24.7359C5.26852 24.912 5.55334 25 5.83915 25C6.08477 25 6.33058 24.9347 6.55011 24.8034L13.0439 20.9205L19.5365 24.8034C20.0128 25.088 20.6117 25.0619 21.0617 24.7359C21.5127 24.4099 21.7237 23.8478 21.6009 23.3042L19.9224 15.9116L25.615 10.9199C26.0324 10.5537 26.1912 9.97552 26.0195 9.44608Z" fill="white"/>
</svg>
