<svg width="24" height="24" viewBox="0 0 24 24" fill="none" xmlns="http://www.w3.org/2000/svg">
<rect opacity="0.01" width="24" height="24" fill="#D8D8D8"/>
<path opacity="0.8" d="M20.832 10.0481C20.9411 10.6277 21 11.2358 21 11.8694C21 16.8242 17.6827 20.3477 12.6739 20.3477C7.88212 20.3477 4 16.4656 4 11.6739C4 6.88212 7.88212 3 12.6739 3C15.0157 3 16.9725 3.86149 18.4745 5.26031L16.0295 7.7053V7.69941C15.1189 6.83202 13.9646 6.38703 12.6739 6.38703C9.81139 6.38703 7.48625 8.80452 7.48625 11.667C7.48625 14.5285 9.81238 16.9528 12.6739 16.9528C15.2711 16.9528 17.0373 15.4676 17.4018 13.4293H12.6739V10.0462L20.832 10.0481Z" fill="white"/>
</svg>
