<svg width="24" height="24" viewBox="0 0 24 24" fill="none" xmlns="http://www.w3.org/2000/svg">
<rect opacity="0.01" width="24" height="24" fill="#D8D8D8"/>
<path opacity="0.8" fill-rule="evenodd" clip-rule="evenodd" d="M3 8.31818C3 5.385 5.385 3 8.31818 3H15.6818C18.615 3 21 5.385 21 8.31818V15.6818C21 18.615 18.615 21 15.6818 21H8.31818C5.385 21 3 18.615 3 15.6818V8.31818ZM18 7.02273C18 6.46023 17.5398 6 16.9773 6C16.4148 6 15.9545 6.46023 15.9545 7.02273C15.9545 7.58523 16.4148 8.04545 16.9773 8.04545C17.5398 8.04545 18 7.58523 18 7.02273ZM12 7.5C14.4832 7.5 16.5 9.51682 16.5 12C16.5 14.4832 14.4832 16.5 12 16.5C9.51682 16.5 7.5 14.4832 7.5 12C7.5 9.51682 9.51682 7.5 12 7.5ZM9.15909 12C9.15909 10.4343 10.4343 9.15909 12 9.15909C13.5657 9.15909 14.8409 10.4343 14.8409 12C14.8409 13.5657 13.5657 14.8409 12 14.8409C10.4343 14.8409 9.15909 13.5657 9.15909 12Z" fill="white"/>
</svg>
