<svg width="24" height="24" viewBox="0 0 24 24" fill="none" xmlns="http://www.w3.org/2000/svg">
<rect opacity="0.01" width="24" height="24" fill="#D8D8D8"/>
<path opacity="0.8" d="M21 6.77562C20.3278 7.08178 19.6126 7.28287 18.8794 7.37188C19.6557 6.89267 20.2325 6.14876 20.5031 5.2775C19.7803 5.71754 18.9863 6.02808 18.1567 6.19512C17.4851 5.45937 16.5247 5 15.4616 5C13.4235 5 11.7701 6.69537 11.7701 8.78675C11.7701 9.08337 11.802 9.37175 11.8654 9.64925C8.796 9.49062 6.07538 7.985 4.25287 5.69112C3.92414 6.2724 3.75202 6.92909 3.75337 7.59687C3.75337 8.91012 4.40512 10.0693 5.39587 10.7488C4.80806 10.7293 4.23379 10.5671 3.72263 10.2762V10.3228C3.72263 12.158 4.99575 13.6891 6.68625 14.0356C6.3697 14.1254 6.04214 14.1703 5.71312 14.1691C5.47537 14.1691 5.24287 14.1463 5.01787 14.1016C5.48812 15.6054 6.85088 16.7011 8.4675 16.7304C7.20375 17.7466 5.61075 18.3523 3.88125 18.3523C3.58312 18.3523 3.28875 18.3346 3 18.3001C4.63462 19.3726 6.57637 20 8.661 20C15.4541 20 19.1681 14.2306 19.1681 9.22625C19.1681 9.06163 19.1647 8.897 19.1584 8.73575C19.8842 8.19739 20.5079 7.53357 21 6.77562Z" fill="white"/>
</svg>
