<svg width="24" height="24" viewBox="0 0 24 24" fill="none" xmlns="http://www.w3.org/2000/svg">
<rect opacity="0.01" width="24" height="24" fill="#D8D8D8"/>
<path opacity="0.8" fill-rule="evenodd" clip-rule="evenodd" d="M21.005 6.05667C21.6042 6.66833 21.8 8.05583 21.8 8.05583C21.8 8.05583 22 9.68625 22 11.3158V12.8442C22 14.4746 21.8 16.1038 21.8 16.1038C21.8 16.1038 21.6046 17.4917 21.005 18.1029C20.3194 18.8261 19.5596 18.9006 19.1301 18.9427C19.083 18.9474 19.0399 18.9516 19.0012 18.9563C16.2025 19.1604 12 19.1667 12 19.1667C12 19.1667 6.8 19.1187 5.2 18.9642C5.12421 18.9499 5.03235 18.9388 4.92833 18.9262C4.42157 18.8649 3.62618 18.7687 2.99458 18.1029C2.395 17.4917 2.2 16.1038 2.2 16.1038C2.2 16.1038 2 14.4742 2 12.8442V11.3158C2 9.68625 2.2 8.05583 2.2 8.05583C2.2 8.05583 2.395 6.66792 2.99458 6.05667C3.68181 5.3322 4.44273 5.2587 4.87207 5.21723C4.91831 5.21276 4.96071 5.20866 4.99875 5.20417C7.7975 5 11.9954 5 11.9954 5H12.0046C12.0046 5 16.2025 5 19.0012 5.20375C19.0396 5.20833 19.0823 5.21249 19.129 5.21704C19.5583 5.25884 20.3188 5.33287 21.005 6.05667ZM9.93417 9.03667L9.935 14.6958L15.3383 11.8758L9.93417 9.03667Z" fill="white"/>
</svg>
